<svg version="1.1" id="Layer_1" xmlns="http://www.w3.org/2000/svg" xmlns:xlink="http://www.w3.org/1999/xlink" x="0px" y="0px"
	 width="100%" viewBox="0 0 344 344" enable-background="new 0 0 459 344" xml:space="preserve">
<path fill="#010101" opacity="1.000000" stroke="none" 
	d="
M460.000000,121.000000 
	C460.000000,196.000000 460.000000,270.500000 460.000000,345.000000 
	C307.000000,345.000000 154.000000,345.000000 1.000000,345.000000 
	C1.000000,230.333328 1.000000,115.666664 1.000000,1.000000 
	C154.000000,1.000000 307.000000,1.000000 460.000000,1.000000 
	C460.000000,40.833332 460.000000,80.666664 460.000000,121.000000 
M450.000000,190.500000 
	C450.000000,129.096924 450.000000,67.693848 450.000000,6.319897 
	C409.128479,6.319897 368.759552,6.319897 328.140625,6.319897 
	C328.140625,8.442502 328.140625,10.253173 328.140625,12.063843 
	C328.140625,81.689629 328.186127,151.315506 328.036957,220.940979 
	C328.027130,225.518478 329.320648,228.567322 332.745941,231.620056 
	C362.460968,258.103241 392.004547,284.778778 421.607117,311.388214 
	C430.810852,319.661316 440.039032,327.907166 450.000000,336.832123 
	C450.000000,287.659454 450.000000,239.579727 450.000000,190.500000 
M92.289780,82.209236 
	C65.418564,58.054955 38.547344,33.900673 11.230434,9.345762 
	C11.230434,120.166756 11.230434,229.917160 11.230434,339.685608 
	C51.840775,339.685608 92.219841,339.685608 132.633636,339.685608 
	C132.733398,338.903168 132.847580,338.425720 132.847641,337.948273 
	C132.856918,265.965179 132.885132,193.982010 132.723343,121.999283 
	C132.718658,119.916214 131.165268,117.330528 129.543610,115.837891 
	C117.408707,104.668564 105.074631,93.715637 92.289780,82.209236 
M292.962402,204.500000 
	C292.962402,138.764908 292.962402,73.029823 292.962402,6.523371 
	C291.789276,7.428610 291.284821,7.774434 290.829132,8.175671 
	C250.688278,43.520618 210.526840,78.842377 170.507080,114.323967 
	C168.982712,115.675476 168.141083,118.572548 168.137390,120.751373 
	C168.016571,192.079819 168.036148,263.408508 168.048508,334.737152 
	C168.048737,336.112183 168.211792,337.487244 168.315201,339.119965 
	C169.050049,338.650726 169.350754,338.509460 169.590210,338.298615 
	C209.984833,302.737976 250.389297,267.188416 290.699127,231.531906 
	C291.954987,230.421036 292.802338,228.221130 292.862000,226.495163 
	C293.103699,219.503967 292.962402,212.499542 292.962402,204.500000 
M132.868622,42.930080 
	C132.868622,30.675083 132.868622,18.420086 132.868622,6.342925 
	C117.164810,6.342925 102.135765,6.342925 86.349258,6.342925 
	C101.976295,20.389181 117.004936,33.897575 132.868622,48.156551 
	C132.868622,45.936970 132.868622,44.850765 132.868622,42.930080 
M341.069244,309.434723 
	C336.965820,305.807800 332.862396,302.180908 328.478180,298.305786 
	C328.478180,312.759338 328.478180,326.307404 328.478180,339.692871 
	C343.835541,339.692871 358.844452,339.692871 374.646637,339.692871 
	C363.234619,329.403412 352.418732,319.651398 341.069244,309.434723 
M204.531982,15.031512 
	C207.668747,12.250529 210.805527,9.469546 214.430328,6.255895 
	C198.460342,6.255895 183.397446,6.255895 168.309326,6.255895 
	C168.309326,19.718246 168.309326,32.918343 168.309326,46.906662 
	C180.567902,36.114021 192.280701,25.801899 204.531982,15.031512 
M292.966858,322.498749 
	C292.966858,314.950806 292.966858,307.402832 292.966858,298.825165 
	C277.088409,312.827545 262.062164,326.078400 246.613998,339.701324 
	C262.632751,339.701324 277.693207,339.701324 292.966858,339.701324 
	C292.966858,334.099304 292.966858,328.798676 292.966858,322.498749 
z"/>
<path fill="#FEFEFE" opacity="1.000000" stroke="none" 
	d="
M450.000000,191.000000 
	C450.000000,239.579727 450.000000,287.659454 450.000000,336.832123 
	C440.039032,327.907166 430.810852,319.661316 421.607117,311.388214 
	C392.004547,284.778778 362.460968,258.103241 332.745941,231.620056 
	C329.320648,228.567322 328.027130,225.518478 328.036957,220.940979 
	C328.186127,151.315506 328.140625,81.689629 328.140625,12.063843 
	C328.140625,10.253173 328.140625,8.442502 328.140625,6.319897 
	C368.759552,6.319897 409.128479,6.319897 450.000000,6.319897 
	C450.000000,67.693848 450.000000,129.096924 450.000000,191.000000 
z"/>
<path fill="#FEFEFE" opacity="1.000000" stroke="none" 
	d="
M92.546356,82.452087 
	C105.074631,93.715637 117.408707,104.668564 129.543610,115.837891 
	C131.165268,117.330528 132.718658,119.916214 132.723343,121.999283 
	C132.885132,193.982010 132.856918,265.965179 132.847641,337.948273 
	C132.847580,338.425720 132.733398,338.903168 132.633636,339.685608 
	C92.219841,339.685608 51.840775,339.685608 11.230434,339.685608 
	C11.230434,229.917160 11.230434,120.166756 11.230434,9.345762 
	C38.547344,33.900673 65.418564,58.054955 92.546356,82.452087 
z"/>
<path fill="#FEFEFE" opacity="1.000000" stroke="none" 
	d="
M292.962402,205.000000 
	C292.962402,212.499542 293.103699,219.503967 292.862000,226.495163 
	C292.802338,228.221130 291.954987,230.421036 290.699127,231.531906 
	C250.389297,267.188416 209.984833,302.737976 169.590210,338.298615 
	C169.350754,338.509460 169.050049,338.650726 168.315201,339.119965 
	C168.211792,337.487244 168.048737,336.112183 168.048508,334.737152 
	C168.036148,263.408508 168.016571,192.079819 168.137390,120.751373 
	C168.141083,118.572548 168.982712,115.675476 170.507080,114.323967 
	C210.526840,78.842377 250.688278,43.520618 290.829132,8.175671 
	C291.284821,7.774434 291.789276,7.428610 292.962402,6.523371 
	C292.962402,73.029823 292.962402,138.764908 292.962402,205.000000 
z"/>
<path fill="#FBFBFB" opacity="1.000000" stroke="none" 
	d="
M132.868622,43.347321 
	C132.868622,44.850765 132.868622,45.936970 132.868622,48.156551 
	C117.004936,33.897575 101.976295,20.389181 86.349258,6.342925 
	C102.135765,6.342925 117.164810,6.342925 132.868622,6.342925 
	C132.868622,18.420086 132.868622,30.675083 132.868622,43.347321 
z"/>
<path fill="#FBFBFB" opacity="1.000000" stroke="none" 
	d="
M341.336029,309.667053 
	C352.418732,319.651398 363.234619,329.403412 374.646637,339.692871 
	C358.844452,339.692871 343.835541,339.692871 328.478180,339.692871 
	C328.478180,326.307404 328.478180,312.759338 328.478180,298.305786 
	C332.862396,302.180908 336.965820,305.807800 341.336029,309.667053 
z"/>
<path fill="#FCFCFC" opacity="1.000000" stroke="none" 
	d="
M204.262741,15.260645 
	C192.280701,25.801899 180.567902,36.114021 168.309326,46.906662 
	C168.309326,32.918343 168.309326,19.718246 168.309326,6.255895 
	C183.397446,6.255895 198.460342,6.255895 214.430328,6.255895 
	C210.805527,9.469546 207.668747,12.250529 204.262741,15.260645 
z"/>
<path fill="#FCFCFC" opacity="1.000000" stroke="none" 
	d="
M292.966858,322.998413 
	C292.966858,328.798676 292.966858,334.099304 292.966858,339.701324 
	C277.693207,339.701324 262.632751,339.701324 246.613998,339.701324 
	C262.062164,326.078400 277.088409,312.827545 292.966858,298.825165 
	C292.966858,307.402832 292.966858,314.950806 292.966858,322.998413 
z"/>
</svg>
